<svg width="375" height="812" viewBox="0 0 375 812" fill="none" xmlns="http://www.w3.org/2000/svg">
<rect width="375" height="812" fill="#2B7940"/>
<rect x="121" y="791" width="134" height="5" rx="2.5" fill="white"/>
<path d="M72.6543 460.258C72.6543 460.018 72.7393 459.815 72.9092 459.651C73.085 459.481 73.293 459.396 73.5332 459.396L80.6963 459.388H80.7051C80.9453 459.388 81.1504 459.476 81.3203 459.651C81.4961 459.821 81.584 460.026 81.584 460.267C81.584 460.507 81.4961 460.715 81.3203 460.891C81.1504 461.061 80.9453 461.146 80.7051 461.146H80.6963L74.4121 461.154L74.4209 464.354L79 464.31H79.0967C79.3311 464.31 79.5215 464.403 79.668 464.591C79.8145 464.778 79.8877 464.96 79.8877 465.136C79.8877 465.388 79.8057 465.607 79.6416 465.795C79.4775 465.977 79.2666 466.067 79.0088 466.067L74.4297 466.111L74.4385 471.227V471.244C74.4385 471.479 74.3506 471.681 74.1748 471.851C74.0049 472.021 73.7998 472.105 73.5596 472.105C73.3193 472.105 73.1113 472.021 72.9355 471.851C72.7656 471.681 72.6807 471.479 72.6807 471.244V471.235L72.6543 460.258ZM87.7188 462.332C88.1523 462.332 88.5742 462.42 88.9844 462.596C89.4004 462.766 89.7695 462.982 90.0918 463.246C90.4199 463.504 90.6631 463.771 90.8213 464.046L90.918 463.202C90.918 462.962 90.9883 462.757 91.1289 462.587C91.2695 462.411 91.46 462.323 91.7002 462.323C91.9404 462.323 92.1455 462.411 92.3154 462.587C92.4912 462.757 92.5791 462.962 92.5791 463.202V463.22L92.5615 471.358C92.5615 471.599 92.4736 471.807 92.2979 471.982C92.1279 472.152 91.9229 472.237 91.6826 472.237C91.4424 472.237 91.252 472.152 91.1113 471.982C90.9707 471.807 90.9004 471.599 90.9004 471.358L90.8037 470.655C90.499 471.177 90.0537 471.566 89.4678 471.824C88.8818 472.076 88.293 472.202 87.7012 472.202C87.0391 472.202 86.418 472.073 85.8379 471.815C85.2578 471.552 84.748 471.191 84.3086 470.734C83.8691 470.277 83.5234 469.753 83.2715 469.161C83.0254 468.569 82.9023 467.945 82.9023 467.289C82.9023 466.639 83.0225 466.018 83.2627 465.426C83.5088 464.828 83.8486 464.298 84.2822 463.835C84.7217 463.366 85.2314 463 85.8115 462.736C86.3975 462.467 87.0332 462.332 87.7188 462.332ZM90.751 467.271C90.751 466.697 90.6162 466.17 90.3467 465.689C90.083 465.209 89.7227 464.822 89.2656 464.529C88.8086 464.236 88.2871 464.09 87.7012 464.09C87.127 464.09 86.6084 464.236 86.1455 464.529C85.6826 464.822 85.3164 465.212 85.0469 465.698C84.7773 466.179 84.6426 466.7 84.6426 467.263C84.6426 467.831 84.7803 468.358 85.0557 468.845C85.3311 469.325 85.7002 469.712 86.1631 470.005C86.6318 470.298 87.1475 470.444 87.71 470.444C88.2725 470.444 88.7822 470.298 89.2393 470.005C89.7021 469.712 90.0684 469.325 90.3379 468.845C90.6133 468.358 90.751 467.834 90.751 467.271ZM100.164 463.483C100.164 463.952 99.9385 464.213 99.4873 464.266C99.3232 464.283 99.1152 464.23 98.8633 464.107C98.6113 463.979 98.3564 463.914 98.0986 463.914C97.5889 463.914 97.1846 464.046 96.8857 464.31C96.5869 464.567 96.373 464.916 96.2441 465.355C96.1152 465.795 96.0508 466.287 96.0508 466.832V471.367C96.0508 471.625 95.9717 471.83 95.8135 471.982C95.6611 472.135 95.4473 472.211 95.1719 472.211C94.9023 472.211 94.6885 472.135 94.5303 471.982C94.3721 471.83 94.293 471.622 94.293 471.358V463.264C94.293 463 94.3574 462.783 94.4863 462.613C94.6211 462.443 94.8027 462.358 95.0312 462.358C95.166 462.358 95.3213 462.417 95.4971 462.534C95.6787 462.646 95.8047 462.839 95.875 463.114L95.9629 463.747C96.0391 463.583 96.1855 463.393 96.4023 463.176C96.6191 462.959 96.877 462.771 97.1758 462.613C97.4746 462.449 97.7852 462.367 98.1074 462.367C98.7051 462.367 99.1973 462.438 99.584 462.578C99.9707 462.713 100.164 463.015 100.164 463.483ZM104.919 462.367C105.487 462.367 105.985 462.505 106.413 462.78C106.847 463.056 107.201 463.39 107.477 463.782C107.805 463.401 108.2 463.07 108.663 462.789C109.126 462.502 109.642 462.358 110.21 462.358C110.96 462.358 111.581 462.561 112.073 462.965C112.571 463.363 112.94 463.888 113.181 464.538C113.421 465.188 113.541 465.892 113.541 466.647L113.55 471.332C113.55 471.566 113.465 471.769 113.295 471.938C113.125 472.108 112.917 472.193 112.671 472.193C112.425 472.193 112.217 472.108 112.047 471.938C111.877 471.769 111.792 471.566 111.792 471.332L111.783 466.665C111.783 466.22 111.742 465.804 111.66 465.417C111.578 465.024 111.429 464.708 111.212 464.468C110.995 464.228 110.682 464.107 110.271 464.107C109.838 464.107 109.466 464.228 109.155 464.468C108.851 464.708 108.616 465.024 108.452 465.417C108.294 465.804 108.215 466.223 108.215 466.674L108.224 471.358C108.224 471.593 108.136 471.795 107.96 471.965C107.79 472.129 107.585 472.211 107.345 472.211C107.099 472.211 106.891 472.126 106.721 471.956C106.551 471.786 106.466 471.584 106.466 471.35V466.683C106.466 466.132 106.372 465.666 106.185 465.285C106.003 464.904 105.766 464.617 105.473 464.424C105.186 464.225 104.89 464.125 104.585 464.125C104.151 464.125 103.762 464.327 103.416 464.731C103.07 465.136 102.897 465.766 102.897 466.621V471.358C102.897 471.593 102.81 471.795 102.634 471.965C102.464 472.129 102.259 472.211 102.019 472.211C101.778 472.211 101.57 472.126 101.395 471.956C101.225 471.786 101.14 471.584 101.14 471.35V463.22C101.14 462.979 101.184 462.777 101.271 462.613C101.365 462.443 101.535 462.358 101.781 462.358C101.975 462.358 102.153 462.42 102.317 462.543C102.481 462.666 102.613 462.871 102.713 463.158L102.88 463.642C103.067 463.255 103.354 462.947 103.741 462.719C104.134 462.484 104.526 462.367 104.919 462.367ZM119.509 462.402C120.288 462.402 121.003 462.596 121.653 462.982C122.304 463.369 122.825 463.891 123.218 464.547C123.616 465.197 123.815 465.921 123.815 466.718C123.815 466.882 123.807 467.049 123.789 467.219C123.766 467.436 123.666 467.62 123.49 467.772C123.32 467.919 123.127 467.992 122.91 467.992L116.767 468.001C116.866 468.423 117.054 468.818 117.329 469.188C117.604 469.557 117.938 469.855 118.331 470.084C118.729 470.312 119.163 470.427 119.632 470.427C120.136 470.427 120.587 470.304 120.985 470.058C121.384 469.812 121.694 469.527 121.917 469.205C121.987 469.094 122.093 469 122.233 468.924C122.38 468.848 122.518 468.81 122.646 468.81C122.887 468.81 123.092 468.897 123.262 469.073C123.438 469.249 123.525 469.457 123.525 469.697C123.525 469.885 123.473 470.052 123.367 470.198C123.004 470.731 122.503 471.194 121.864 471.587C121.231 471.974 120.496 472.167 119.658 472.167C118.984 472.167 118.357 472.035 117.777 471.771C117.203 471.508 116.702 471.147 116.274 470.69C115.847 470.233 115.513 469.709 115.272 469.117C115.038 468.52 114.921 467.89 114.921 467.228C114.921 466.589 115.038 465.982 115.272 465.408C115.507 464.828 115.832 464.312 116.248 463.861C116.67 463.41 117.159 463.056 117.716 462.798C118.272 462.534 118.87 462.402 119.509 462.402ZM122.005 466.234C121.894 465.66 121.606 465.171 121.144 464.767C120.681 464.362 120.136 464.16 119.509 464.16C118.87 464.16 118.305 464.368 117.812 464.784C117.326 465.2 116.998 465.687 116.828 466.243L122.005 466.234ZM131.049 463.483C131.049 463.952 130.823 464.213 130.372 464.266C130.208 464.283 130 464.23 129.748 464.107C129.496 463.979 129.241 463.914 128.983 463.914C128.474 463.914 128.069 464.046 127.771 464.31C127.472 464.567 127.258 464.916 127.129 465.355C127 465.795 126.936 466.287 126.936 466.832V471.367C126.936 471.625 126.856 471.83 126.698 471.982C126.546 472.135 126.332 472.211 126.057 472.211C125.787 472.211 125.573 472.135 125.415 471.982C125.257 471.83 125.178 471.622 125.178 471.358V463.264C125.178 463 125.242 462.783 125.371 462.613C125.506 462.443 125.688 462.358 125.916 462.358C126.051 462.358 126.206 462.417 126.382 462.534C126.563 462.646 126.689 462.839 126.76 463.114L126.848 463.747C126.924 463.583 127.07 463.393 127.287 463.176C127.504 462.959 127.762 462.771 128.061 462.613C128.359 462.449 128.67 462.367 128.992 462.367C129.59 462.367 130.082 462.438 130.469 462.578C130.855 462.713 131.049 463.015 131.049 463.483ZM133.026 466.076H139.732C139.973 466.076 140.178 466.164 140.348 466.34C140.523 466.51 140.611 466.715 140.611 466.955C140.611 467.195 140.523 467.403 140.348 467.579C140.178 467.749 139.973 467.834 139.732 467.834H133.026C132.786 467.834 132.578 467.749 132.402 467.579C132.232 467.403 132.147 467.195 132.147 466.955C132.147 466.715 132.232 466.51 132.402 466.34C132.578 466.164 132.786 466.076 133.026 466.076ZM148.627 459.871C148.68 459.707 148.785 459.569 148.943 459.458C149.107 459.347 149.28 459.291 149.462 459.291C149.661 459.291 149.837 459.353 149.989 459.476C150.147 459.599 150.25 459.742 150.297 459.906L152.995 468.502L155.395 460.231C155.441 459.985 155.544 459.774 155.702 459.599C155.866 459.417 156.048 459.326 156.247 459.326C156.499 459.326 156.707 459.432 156.871 459.643C157.041 459.854 157.126 460.103 157.126 460.39C157.126 460.507 157.111 460.609 157.082 460.697L153.892 471.534C153.839 471.71 153.733 471.856 153.575 471.974C153.417 472.085 153.244 472.141 153.057 472.141C152.881 472.141 152.708 472.088 152.538 471.982C152.374 471.871 152.266 471.73 152.213 471.561L149.436 463.589L146.5 471.824C146.406 471.918 146.289 471.994 146.148 472.053C146.014 472.111 145.853 472.141 145.665 472.141C145.478 472.141 145.302 472.085 145.138 471.974C144.974 471.856 144.865 471.71 144.812 471.534L141.736 460.812C141.713 460.718 141.701 460.615 141.701 460.504C141.701 460.217 141.783 459.968 141.947 459.757C142.117 459.546 142.328 459.44 142.58 459.44C142.785 459.44 142.967 459.534 143.125 459.722C143.289 459.903 143.392 460.117 143.433 460.363L145.744 468.555L148.627 459.871ZM162.03 462.402C162.81 462.402 163.524 462.596 164.175 462.982C164.825 463.369 165.347 463.891 165.739 464.547C166.138 465.197 166.337 465.921 166.337 466.718C166.337 466.882 166.328 467.049 166.311 467.219C166.287 467.436 166.188 467.62 166.012 467.772C165.842 467.919 165.648 467.992 165.432 467.992L159.288 468.001C159.388 468.423 159.575 468.818 159.851 469.188C160.126 469.557 160.46 469.855 160.853 470.084C161.251 470.312 161.685 470.427 162.153 470.427C162.657 470.427 163.108 470.304 163.507 470.058C163.905 469.812 164.216 469.527 164.438 469.205C164.509 469.094 164.614 469 164.755 468.924C164.901 468.848 165.039 468.81 165.168 468.81C165.408 468.81 165.613 468.897 165.783 469.073C165.959 469.249 166.047 469.457 166.047 469.697C166.047 469.885 165.994 470.052 165.889 470.198C165.525 470.731 165.024 471.194 164.386 471.587C163.753 471.974 163.018 472.167 162.18 472.167C161.506 472.167 160.879 472.035 160.299 471.771C159.725 471.508 159.224 471.147 158.796 470.69C158.368 470.233 158.034 469.709 157.794 469.117C157.56 468.52 157.442 467.89 157.442 467.228C157.442 466.589 157.56 465.982 157.794 465.408C158.028 464.828 158.354 464.312 158.77 463.861C159.191 463.41 159.681 463.056 160.237 462.798C160.794 462.534 161.392 462.402 162.03 462.402ZM164.526 466.234C164.415 465.66 164.128 465.171 163.665 464.767C163.202 464.362 162.657 464.16 162.03 464.16C161.392 464.16 160.826 464.368 160.334 464.784C159.848 465.2 159.52 465.687 159.35 466.243L164.526 466.234ZM169.062 460.803C169.062 460.562 169.146 460.357 169.316 460.188C169.486 460.012 169.694 459.924 169.94 459.924C170.181 459.924 170.386 460.012 170.556 460.188C170.731 460.357 170.819 460.562 170.819 460.803V462.552H171.997C172.226 462.552 172.422 462.634 172.586 462.798C172.75 462.962 172.832 463.158 172.832 463.387C172.832 463.615 172.75 463.812 172.586 463.976C172.422 464.14 172.226 464.222 171.997 464.222H170.811L170.802 469.662V469.68C170.802 469.967 170.834 470.166 170.898 470.277C170.963 470.383 171.095 470.436 171.294 470.436C171.546 470.436 171.769 470.368 171.962 470.233C172.032 470.187 172.117 470.146 172.217 470.11C172.316 470.069 172.413 470.049 172.507 470.049C172.747 470.049 172.952 470.134 173.122 470.304C173.298 470.474 173.386 470.679 173.386 470.919C173.386 471.206 173.269 471.438 173.034 471.613C172.812 471.783 172.557 471.924 172.27 472.035C171.982 472.146 171.675 472.202 171.347 472.202C170.608 472.202 170.04 471.977 169.642 471.525C169.243 471.068 169.044 470.5 169.044 469.82V469.741L169.053 464.23H167.919C167.69 464.23 167.494 464.148 167.33 463.984C167.166 463.82 167.084 463.624 167.084 463.396C167.084 463.167 167.166 462.971 167.33 462.807C167.494 462.643 167.69 462.561 167.919 462.561H169.062V460.803ZM175.794 460.803C175.794 460.562 175.879 460.357 176.049 460.188C176.219 460.012 176.427 459.924 176.673 459.924C176.913 459.924 177.118 460.012 177.288 460.188C177.464 460.357 177.552 460.562 177.552 460.803V462.552H178.729C178.958 462.552 179.154 462.634 179.318 462.798C179.482 462.962 179.564 463.158 179.564 463.387C179.564 463.615 179.482 463.812 179.318 463.976C179.154 464.14 178.958 464.222 178.729 464.222H177.543L177.534 469.662V469.68C177.534 469.967 177.566 470.166 177.631 470.277C177.695 470.383 177.827 470.436 178.026 470.436C178.278 470.436 178.501 470.368 178.694 470.233C178.765 470.187 178.85 470.146 178.949 470.11C179.049 470.069 179.146 470.049 179.239 470.049C179.479 470.049 179.685 470.134 179.854 470.304C180.03 470.474 180.118 470.679 180.118 470.919C180.118 471.206 180.001 471.438 179.767 471.613C179.544 471.783 179.289 471.924 179.002 472.035C178.715 472.146 178.407 472.202 178.079 472.202C177.341 472.202 176.772 471.977 176.374 471.525C175.976 471.068 175.776 470.5 175.776 469.82V469.741L175.785 464.23H174.651C174.423 464.23 174.227 464.148 174.062 463.984C173.898 463.82 173.816 463.624 173.816 463.396C173.816 463.167 173.898 462.971 174.062 462.807C174.227 462.643 174.423 462.561 174.651 462.561H175.794V460.803ZM181.428 462.323C181.598 462.323 181.756 462.373 181.902 462.473C182.055 462.572 182.163 462.695 182.228 462.842L185.216 469.636L187.773 462.903C187.838 462.745 187.943 462.613 188.09 462.508C188.242 462.402 188.409 462.35 188.591 462.35C188.831 462.35 189.036 462.438 189.206 462.613C189.382 462.783 189.47 462.988 189.47 463.229C189.47 463.352 189.446 463.466 189.399 463.571L186.165 472.009C186.153 472.085 186.133 472.152 186.104 472.211C186.074 472.27 186.045 472.322 186.016 472.369L185.523 473.6C185.4 473.904 185.254 474.227 185.084 474.566C184.914 474.912 184.68 475.237 184.381 475.542C184.094 475.841 183.742 476.093 183.326 476.298C182.916 476.503 182.485 476.605 182.034 476.605C181.788 476.605 181.58 476.515 181.41 476.333C181.24 476.157 181.155 475.949 181.155 475.709C181.155 475.475 181.234 475.27 181.393 475.094C181.557 474.924 181.753 474.836 181.981 474.83C182.497 474.795 182.896 474.593 183.177 474.224C183.458 473.86 183.698 473.43 183.897 472.932L184.319 471.859L180.628 463.58C180.575 463.457 180.549 463.331 180.549 463.202C180.549 462.962 180.634 462.757 180.804 462.587C180.979 462.411 181.188 462.323 181.428 462.323ZM191.456 466.076H198.162C198.402 466.076 198.607 466.164 198.777 466.34C198.953 466.51 199.041 466.715 199.041 466.955C199.041 467.195 198.953 467.403 198.777 467.579C198.607 467.749 198.402 467.834 198.162 467.834H191.456C191.216 467.834 191.008 467.749 190.832 467.579C190.662 467.403 190.577 467.195 190.577 466.955C190.577 466.715 190.662 466.51 190.832 466.34C191.008 466.164 191.216 466.076 191.456 466.076ZM200.57 460.258C200.57 460.018 200.655 459.815 200.825 459.651C201.001 459.481 201.209 459.396 201.449 459.396L208.612 459.388H208.621C208.861 459.388 209.066 459.476 209.236 459.651C209.412 459.821 209.5 460.026 209.5 460.267C209.5 460.507 209.412 460.715 209.236 460.891C209.066 461.061 208.861 461.146 208.621 461.146H208.612L202.328 461.154L202.337 464.354L206.916 464.31H207.013C207.247 464.31 207.438 464.403 207.584 464.591C207.73 464.778 207.804 464.96 207.804 465.136C207.804 465.388 207.722 465.607 207.558 465.795C207.394 465.977 207.183 466.067 206.925 466.067L202.346 466.111L202.354 471.227V471.244C202.354 471.479 202.267 471.681 202.091 471.851C201.921 472.021 201.716 472.105 201.476 472.105C201.235 472.105 201.027 472.021 200.852 471.851C200.682 471.681 200.597 471.479 200.597 471.244V471.235L200.57 460.258ZM216.865 463.483C216.865 463.952 216.64 464.213 216.188 464.266C216.024 464.283 215.816 464.23 215.564 464.107C215.312 463.979 215.058 463.914 214.8 463.914C214.29 463.914 213.886 464.046 213.587 464.31C213.288 464.567 213.074 464.916 212.945 465.355C212.816 465.795 212.752 466.287 212.752 466.832V471.367C212.752 471.625 212.673 471.83 212.515 471.982C212.362 472.135 212.148 472.211 211.873 472.211C211.604 472.211 211.39 472.135 211.231 471.982C211.073 471.83 210.994 471.622 210.994 471.358V463.264C210.994 463 211.059 462.783 211.188 462.613C211.322 462.443 211.504 462.358 211.732 462.358C211.867 462.358 212.022 462.417 212.198 462.534C212.38 462.646 212.506 462.839 212.576 463.114L212.664 463.747C212.74 463.583 212.887 463.393 213.104 463.176C213.32 462.959 213.578 462.771 213.877 462.613C214.176 462.449 214.486 462.367 214.809 462.367C215.406 462.367 215.898 462.438 216.285 462.578C216.672 462.713 216.865 463.015 216.865 463.483ZM218.869 461.471C218.6 461.471 218.38 461.389 218.21 461.225C218.04 461.055 217.952 460.847 217.946 460.601L217.929 459.933C217.929 459.71 218.028 459.531 218.228 459.396C218.427 459.256 218.617 459.186 218.799 459.186C219.045 459.186 219.25 459.271 219.414 459.44C219.584 459.61 219.672 459.815 219.678 460.056L219.687 460.583C219.687 460.812 219.61 461.017 219.458 461.198C219.306 461.38 219.109 461.471 218.869 461.471ZM217.92 463.132C217.92 462.909 218.014 462.728 218.201 462.587C218.389 462.446 218.57 462.376 218.746 462.376C219.004 462.376 219.224 462.452 219.405 462.604C219.587 462.757 219.678 462.959 219.678 463.211V463.22L219.695 471.358C219.695 471.593 219.607 471.792 219.432 471.956C219.262 472.12 219.057 472.202 218.816 472.202C218.57 472.202 218.362 472.12 218.192 471.956C218.022 471.786 217.938 471.584 217.938 471.35L217.92 463.132ZM225.646 462.402C226.425 462.402 227.14 462.596 227.79 462.982C228.44 463.369 228.962 463.891 229.354 464.547C229.753 465.197 229.952 465.921 229.952 466.718C229.952 466.882 229.943 467.049 229.926 467.219C229.902 467.436 229.803 467.62 229.627 467.772C229.457 467.919 229.264 467.992 229.047 467.992L222.903 468.001C223.003 468.423 223.19 468.818 223.466 469.188C223.741 469.557 224.075 469.855 224.468 470.084C224.866 470.312 225.3 470.427 225.769 470.427C226.272 470.427 226.724 470.304 227.122 470.058C227.521 469.812 227.831 469.527 228.054 469.205C228.124 469.094 228.229 469 228.37 468.924C228.517 468.848 228.654 468.81 228.783 468.81C229.023 468.81 229.229 468.897 229.398 469.073C229.574 469.249 229.662 469.457 229.662 469.697C229.662 469.885 229.609 470.052 229.504 470.198C229.141 470.731 228.64 471.194 228.001 471.587C227.368 471.974 226.633 472.167 225.795 472.167C225.121 472.167 224.494 472.035 223.914 471.771C223.34 471.508 222.839 471.147 222.411 470.69C221.983 470.233 221.649 469.709 221.409 469.117C221.175 468.52 221.058 467.89 221.058 467.228C221.058 466.589 221.175 465.982 221.409 465.408C221.644 464.828 221.969 464.312 222.385 463.861C222.807 463.41 223.296 463.056 223.853 462.798C224.409 462.534 225.007 462.402 225.646 462.402ZM228.142 466.234C228.03 465.66 227.743 465.171 227.28 464.767C226.817 464.362 226.272 464.16 225.646 464.16C225.007 464.16 224.441 464.368 223.949 464.784C223.463 465.2 223.135 465.687 222.965 466.243L228.142 466.234ZM233.072 463.765C233.389 463.454 233.767 463.146 234.206 462.842C234.651 462.537 235.167 462.385 235.753 462.385C236.521 462.385 237.159 462.59 237.669 463C238.179 463.404 238.554 463.876 238.794 464.415C238.981 464.843 239.093 465.268 239.128 465.689C239.169 466.105 239.189 466.498 239.189 466.867V471.306C239.189 471.546 239.102 471.754 238.926 471.93C238.756 472.1 238.551 472.185 238.311 472.185C238.07 472.185 237.862 472.1 237.687 471.93C237.517 471.754 237.432 471.546 237.432 471.306V466.867C237.432 466.521 237.414 466.202 237.379 465.909C237.35 465.616 237.285 465.358 237.186 465.136C237.074 464.878 236.901 464.649 236.667 464.45C236.433 464.245 236.134 464.143 235.771 464.143C234.903 464.143 234.235 464.474 233.767 465.136C233.304 465.798 233.075 466.691 233.081 467.816L233.09 471.323C233.09 471.563 233.002 471.771 232.826 471.947C232.656 472.117 232.451 472.202 232.211 472.202C231.965 472.202 231.757 472.117 231.587 471.947C231.417 471.771 231.332 471.561 231.332 471.314L231.314 463.237C231.314 462.997 231.379 462.792 231.508 462.622C231.643 462.446 231.83 462.358 232.07 462.358C232.311 462.358 232.495 462.446 232.624 462.622C232.753 462.792 232.853 462.997 232.923 463.237L233.072 463.765ZM240.464 467.271C240.464 466.609 240.587 465.965 240.833 465.338C241.079 464.711 241.442 464.157 241.923 463.677C242.351 463.261 242.843 462.938 243.399 462.71C243.956 462.481 244.533 462.367 245.131 462.367C245.74 462.367 246.282 462.496 246.757 462.754C247.231 463.012 247.656 463.36 248.031 463.8V460.1C248.031 459.859 248.116 459.654 248.286 459.484C248.462 459.309 248.67 459.221 248.91 459.221C249.15 459.221 249.355 459.309 249.525 459.484C249.701 459.654 249.789 459.859 249.789 460.1V471.323C249.789 471.563 249.701 471.771 249.525 471.947C249.355 472.117 249.15 472.202 248.91 472.202C248.67 472.202 248.488 472.117 248.365 471.947C248.248 471.771 248.172 471.563 248.137 471.323L248.031 470.611C247.697 471.092 247.255 471.47 246.704 471.745C246.159 472.021 245.614 472.158 245.069 472.158C244.407 472.158 243.795 472.026 243.232 471.763C242.676 471.499 242.189 471.142 241.773 470.69C241.357 470.233 241.035 469.712 240.807 469.126C240.578 468.54 240.464 467.922 240.464 467.271ZM245.052 470.4C245.433 470.4 245.811 470.315 246.186 470.146C246.561 469.976 246.88 469.747 247.144 469.46C247.407 469.167 247.609 468.824 247.75 468.432C247.896 468.039 247.97 467.638 247.97 467.228C247.97 466.665 247.847 466.146 247.601 465.672C247.354 465.197 247.015 464.816 246.581 464.529C246.153 464.242 245.658 464.099 245.096 464.099C244.545 464.099 244.05 464.251 243.61 464.556C243.177 464.854 242.834 465.247 242.582 465.733C242.336 466.214 242.213 466.727 242.213 467.271C242.213 467.816 242.336 468.329 242.582 468.81C242.828 469.284 243.165 469.668 243.593 469.961C244.026 470.254 244.513 470.4 245.052 470.4ZM252.347 459.177C252.628 459.177 252.854 459.271 253.023 459.458C253.193 459.64 253.275 459.839 253.27 460.056V471.376C253.27 471.61 253.176 471.801 252.988 471.947C252.807 472.088 252.625 472.158 252.443 472.158C252.191 472.158 251.972 472.076 251.784 471.912C251.603 471.748 251.512 471.537 251.512 471.279V460.056C251.512 459.833 251.591 459.631 251.749 459.449C251.913 459.268 252.112 459.177 252.347 459.177ZM255.203 462.323C255.373 462.323 255.531 462.373 255.678 462.473C255.83 462.572 255.938 462.695 256.003 462.842L258.991 469.636L261.549 462.903C261.613 462.745 261.719 462.613 261.865 462.508C262.018 462.402 262.185 462.35 262.366 462.35C262.606 462.35 262.812 462.438 262.981 462.613C263.157 462.783 263.245 462.988 263.245 463.229C263.245 463.352 263.222 463.466 263.175 463.571L259.94 472.009C259.929 472.085 259.908 472.152 259.879 472.211C259.85 472.27 259.82 472.322 259.791 472.369L259.299 473.6C259.176 473.904 259.029 474.227 258.859 474.566C258.689 474.912 258.455 475.237 258.156 475.542C257.869 475.841 257.518 476.093 257.102 476.298C256.691 476.503 256.261 476.605 255.81 476.605C255.563 476.605 255.355 476.515 255.186 476.333C255.016 476.157 254.931 475.949 254.931 475.709C254.931 475.475 255.01 475.27 255.168 475.094C255.332 474.924 255.528 474.836 255.757 474.83C256.272 474.795 256.671 474.593 256.952 474.224C257.233 473.86 257.474 473.43 257.673 472.932L258.095 471.859L254.403 463.58C254.351 463.457 254.324 463.331 254.324 463.202C254.324 462.962 254.409 462.757 254.579 462.587C254.755 462.411 254.963 462.323 255.203 462.323ZM273.739 459.739C273.804 459.593 273.912 459.47 274.064 459.37C274.223 459.265 274.384 459.212 274.548 459.212C274.706 459.212 274.864 459.265 275.022 459.37C275.187 459.47 275.298 459.593 275.356 459.739L280.19 470.954C280.243 471.071 280.27 471.191 280.27 471.314C280.27 471.555 280.182 471.763 280.006 471.938C279.836 472.108 279.631 472.193 279.391 472.193C279.227 472.193 279.065 472.141 278.907 472.035C278.749 471.93 278.638 471.804 278.573 471.657L277.07 468.168L272.061 468.098L270.522 471.666C270.464 471.812 270.355 471.938 270.197 472.044C270.039 472.155 269.878 472.211 269.714 472.211C269.474 472.211 269.266 472.126 269.09 471.956C268.92 471.78 268.835 471.572 268.835 471.332C268.835 471.209 268.861 471.089 268.914 470.972L273.739 459.739ZM274.548 462.314L272.816 466.349L276.306 466.393L274.548 462.314ZM290.904 467.289C290.904 467.951 290.781 468.596 290.535 469.223C290.295 469.85 289.932 470.403 289.445 470.884C289.018 471.3 288.525 471.622 287.969 471.851C287.412 472.079 286.835 472.193 286.237 472.193C285.628 472.193 285.086 472.064 284.611 471.807C284.143 471.549 283.718 471.2 283.337 470.761V474.461C283.337 474.701 283.249 474.906 283.073 475.076C282.903 475.252 282.698 475.34 282.458 475.34C282.218 475.34 282.01 475.252 281.834 475.076C281.664 474.906 281.579 474.701 281.579 474.461V463.237C281.579 462.997 281.664 462.792 281.834 462.622C282.01 462.446 282.218 462.358 282.458 462.358C282.698 462.358 282.877 462.446 282.994 462.622C283.117 462.792 283.196 462.997 283.231 463.237L283.337 463.949C283.671 463.469 284.11 463.091 284.655 462.815C285.206 462.54 285.754 462.402 286.299 462.402C286.961 462.402 287.57 462.534 288.127 462.798C288.689 463.062 289.179 463.422 289.595 463.879C290.011 464.33 290.333 464.849 290.562 465.435C290.79 466.021 290.904 466.639 290.904 467.289ZM286.316 464.16C285.936 464.16 285.558 464.245 285.183 464.415C284.808 464.579 284.488 464.808 284.225 465.101C283.961 465.388 283.756 465.73 283.609 466.129C283.469 466.521 283.398 466.923 283.398 467.333C283.398 467.896 283.521 468.414 283.768 468.889C284.014 469.363 284.354 469.744 284.787 470.031C285.221 470.318 285.716 470.462 286.272 470.462C286.829 470.462 287.324 470.312 287.758 470.014C288.191 469.709 288.531 469.316 288.777 468.836C289.029 468.35 289.155 467.834 289.155 467.289C289.155 466.738 289.032 466.226 288.786 465.751C288.54 465.276 288.203 464.893 287.775 464.6C287.348 464.307 286.861 464.16 286.316 464.16ZM301.557 467.289C301.557 467.951 301.434 468.596 301.188 469.223C300.947 469.85 300.584 470.403 300.098 470.884C299.67 471.3 299.178 471.622 298.621 471.851C298.064 472.079 297.487 472.193 296.89 472.193C296.28 472.193 295.738 472.064 295.264 471.807C294.795 471.549 294.37 471.2 293.989 470.761V474.461C293.989 474.701 293.901 474.906 293.726 475.076C293.556 475.252 293.351 475.34 293.11 475.34C292.87 475.34 292.662 475.252 292.486 475.076C292.316 474.906 292.231 474.701 292.231 474.461V463.237C292.231 462.997 292.316 462.792 292.486 462.622C292.662 462.446 292.87 462.358 293.11 462.358C293.351 462.358 293.529 462.446 293.646 462.622C293.77 462.792 293.849 462.997 293.884 463.237L293.989 463.949C294.323 463.469 294.763 463.091 295.308 462.815C295.858 462.54 296.406 462.402 296.951 462.402C297.613 462.402 298.223 462.534 298.779 462.798C299.342 463.062 299.831 463.422 300.247 463.879C300.663 464.33 300.985 464.849 301.214 465.435C301.442 466.021 301.557 466.639 301.557 467.289ZM296.969 464.16C296.588 464.16 296.21 464.245 295.835 464.415C295.46 464.579 295.141 464.808 294.877 465.101C294.613 465.388 294.408 465.73 294.262 466.129C294.121 466.521 294.051 466.923 294.051 467.333C294.051 467.896 294.174 468.414 294.42 468.889C294.666 469.363 295.006 469.744 295.439 470.031C295.873 470.318 296.368 470.462 296.925 470.462C297.481 470.462 297.977 470.312 298.41 470.014C298.844 469.709 299.184 469.316 299.43 468.836C299.682 468.35 299.808 467.834 299.808 467.289C299.808 466.738 299.685 466.226 299.438 465.751C299.192 465.276 298.855 464.893 298.428 464.6C298 464.307 297.514 464.16 296.969 464.16Z" fill="white"/>
<g clip-path="url(#clip0_1_4)">
<path d="M137.07 210.643H137.568L138.564 216.704L139.809 221.311L139.56 222.766L137.319 224.948L134.581 229.07L132.59 232.949L131.096 236.586L129.603 241.435L128.358 247.739L128.109 249.436V253.558L129.105 256.71L130.598 258.892L132.59 260.589L135.328 261.801L137.319 262.287L148.272 262.771L155.491 263.741L161.216 265.196L167.439 267.378L172.168 269.56L177.644 272.712L180.632 274.652L184.614 277.804L187.85 280.713L189.592 282.653L191.833 285.078L194.571 288.472L197.06 292.109L200.047 297.2L202.786 302.777L202.536 303.262L199.55 299.868L197.309 297.2L193.824 293.806L189.592 290.654L187.103 288.957L183.619 286.532L177.893 283.623L171.67 281.199L165.696 279.501L161.216 278.531L156.984 278.046L152.504 277.804H147.525L140.057 278.531L135.079 279.501L132.59 280.229V280.956L134.332 282.41L136.573 283.38H138.813L143.293 282.653L147.027 282.41H152.752L159.224 282.896L164.7 283.865L170.675 285.563L177.644 288.715L182.125 291.139L187.103 294.534L190.837 297.686L192.828 299.383L194.571 301.322L197.558 304.717L200.545 308.839L202.786 312.233L203.532 313.203L206.022 312.718L207.515 312.233V309.324L207.017 306.899L208.759 306.414L219.712 304.717L223.695 303.262L226.682 301.08L228.424 299.868V299.383H217.97L214.236 299.625L210.253 299.14L207.017 297.928L204.03 295.746L202.039 293.564L198.803 288.23L197.309 286.048L198.056 285.563L204.777 282.653L212.244 280.229L220.21 278.531L228.673 277.319L231.162 277.077L231.909 276.834L232.158 277.077L239.626 277.319L242.364 276.349L243.609 275.137L244.604 273.197L245.102 271.742L232.158 271.015L231.909 271.5V271.015L225.935 271.5L217.721 272.712L211.249 274.167L202.536 276.834L199.052 277.319H196.314L192.828 276.834L187.601 274.894L184.365 272.955L184.614 271.985L186.606 270.288L189.344 268.106L193.078 265.439L198.803 261.801L202.287 259.862L208.013 257.195L214.236 254.77L221.206 252.83L227.926 251.376L235.643 250.163L238.132 249.194L240.373 247.497L241.866 245.799L243.11 242.89L243.359 241.92V238.283L242.115 234.646L240.123 230.767L237.634 226.402L233.651 220.826L233.901 219.856L235.892 218.159L238.381 215.734L240.123 213.795L240.87 214.037L242.862 216.704L245.351 220.099L248.338 224.948L251.076 230.282L253.067 235.373L254.81 240.95L256.054 247.254L256.553 250.649L256.801 254.043V261.801L256.303 267.62L255.059 273.197L253.317 279.259L250.578 286.048L247.591 291.624L244.106 296.716L241.617 299.868L239.128 302.535L237.386 304.474L232.407 309.324L229.669 311.506L225.686 314.173L219.712 317.567L213.24 320.477L207.764 322.417L201.79 323.871L195.318 324.841L189.095 325.326H183.37L174.906 324.356L168.435 322.901L162.709 320.962L156.984 318.537L151.508 315.628L145.533 311.748L142.796 309.566L139.311 306.657L134.83 302.292L132.092 298.898L128.856 294.534L126.118 289.927L123.877 285.805L121.389 279.501L119.895 274.652L118.401 267.863L117.904 263.984L117.654 260.589V254.77L118.153 249.194L119.148 243.375L120.89 237.313L123.131 231.252L126.616 224.22L128.856 220.826L131.345 217.431L133.834 214.28L136.075 211.855L137.07 210.643ZM154.993 298.17L146.28 299.383V300.11L149.268 301.808L151.508 302.535L154.744 302.777L159.224 302.535L165.945 303.02L170.675 303.747L174.657 304.717L178.889 305.929L183.37 307.869L188.597 310.536L192.828 313.445L195.069 314.658L197.06 314.9L200.047 314.658L200.545 314.415L200.047 313.445L197.309 311.021L192.58 307.627L187.601 304.717L183.868 303.02L177.893 300.838L173.164 299.625L166.692 298.413L163.954 298.17H154.993Z" fill="#D0FFB8"/>
<path d="M201.79 167L206.271 167.242L211.498 168.212L215.729 169.425L219.215 171.122L218.468 171.849L213.987 172.819L210.502 174.031L206.52 176.213L204.03 178.153L200.545 181.548L197.808 185.184L195.069 190.034L193.078 194.883L191.336 200.459L190.091 206.763L189.593 212.098V221.796L190.34 228.1L191.584 233.919L192.331 237.071L193.078 237.313L193.576 236.101L196.065 232.221L198.554 229.07L201.292 225.918L202.537 224.463H203.035L203.533 223.493L205.524 221.796L209.258 219.129L214.485 216.219L218.717 213.795L221.455 212.098L224.94 209.673L228.176 207.006L230.416 204.824L232.159 202.642L234.399 199.732L235.643 197.55L236.639 195.853L235.643 197.065L231.163 202.157L229.171 203.854L226.682 206.036L222.201 209.188L217.721 211.855L211.996 214.764L207.515 217.431L203.284 220.583L200.048 223.25L199.052 224.463L198.056 224.705L197.808 223.978L198.554 218.644L200.048 214.037L202.039 210.158L203.781 207.491L205.773 205.066L208.76 201.672L211.996 199.005L216.725 196.095L220.957 194.155L227.429 191.731L231.412 189.791L234.896 187.852L238.879 184.942L240.871 183.245L243.609 179.85L245.6 177.426L246.098 178.153L245.849 186.882L245.351 192.216L244.356 197.065L243.111 200.944L241.368 205.066L239.377 208.461L237.137 211.37L234.15 214.522L231.163 217.189L226.433 220.341L222.201 222.766L218.468 224.705L211.498 227.857L206.271 230.524L202.039 233.434L200.048 235.131L197.309 239.01L195.567 242.647L194.572 246.042L193.825 252.588L192.58 257.195L191.336 260.104L189.842 262.771L187.601 265.681L186.108 267.378L183.37 269.318L183.121 268.348L185.113 264.226L186.108 260.589L186.855 256.468L187.104 254.285V247.011L186.606 239.738L185.859 233.191L183.619 221.311L182.872 216.219L182.623 213.31V206.036L183.37 199.732L184.614 194.398L186.108 189.549V189.064L184.117 193.186L182.623 197.55L181.628 202.399L181.13 208.461V214.037L181.628 220.099L183.121 229.312L183.868 232.949L182.872 231.979L179.885 226.645L177.147 222.281L174.16 216.947L171.92 211.855L170.675 208.218L169.679 204.096L169.43 202.399V195.61L170.426 191.246L171.67 187.852L173.911 183.73L175.902 180.82L178.889 177.426L182.125 174.274L186.855 170.879L190.589 169.182L195.318 167.727L198.305 167.242L201.79 167Z" fill="#D0FFB8"/>
<path d="M142.299 195.611L142.797 196.338L144.788 203.854L145.784 206.279L148.024 209.673L150.763 212.583L152.754 214.28L157.483 217.19L160.47 219.129L164.453 222.039L167.938 224.948L169.93 226.888L172.17 229.555L174.41 232.95L176.152 236.586L177.148 239.738L177.397 241.435L176.65 241.678L169.182 238.041L164.204 235.374L160.968 233.192L157.732 230.525L154.745 227.615L152.505 224.948L154.496 228.828L155.99 231.252L158.728 234.404L160.968 236.586L163.955 238.769L169.68 241.678L177.895 245.072L180.882 246.285L183.371 247.497L184.367 248.709L185.362 250.891L185.86 253.316V258.892L184.865 258.408L183.371 255.983L181.131 253.559L179.388 252.104L175.406 249.679L170.676 247.497L166.444 245.8L162.711 243.618L158.23 240.223L155.243 237.556L152.505 234.889L149.269 230.767L146.531 226.403L144.539 222.523L143.046 218.644L142.05 215.007L141.552 211.855V204.339L142.05 199.732L142.299 195.611Z" fill="#D0FFB8"/>
<path d="M129.852 343.996H134.083L138.066 344.48L141.053 345.693L142.547 346.662L144.04 349.087L144.787 351.997V354.179L143.791 356.603L141.8 359.513L140.057 361.695L140.306 363.877L143.293 369.211L145.533 372.121L146.529 373.576V374.788L145.533 375.515H142.297L140.555 373.576L138.066 369.938L135.576 365.817L133.834 363.877L133.336 363.635H131.345L130.1 364.847L129.603 365.574L129.353 366.787V369.211L129.852 371.878V373.333L128.358 375.03L127.113 375.515H124.873L123.38 374.788L122.384 373.818V371.878L123.38 368.726V350.542L123.131 347.39V344.965L124.624 344.238L129.852 343.996ZM131.096 347.148L129.603 347.875L128.856 349.087V358.786L129.353 359.513L130.598 359.755H133.088L135.576 359.028L137.817 357.573L138.812 356.118L139.311 353.936V351.269L138.315 349.329L136.572 347.875L134.332 347.148H131.096Z" fill="#D0FFB8"/>
<path d="M212.493 344.965L214.734 345.208L215.978 346.178L216.476 346.905V348.845L215.48 352.724L215.729 354.421L215.231 355.149L214.982 369.696L214.734 372.848L213.987 374.788L213.738 375.031H211.995L210.502 374.061L209.257 372.848L207.266 370.423L203.283 364.362L198.803 357.816L196.064 354.421L194.82 353.452L194.571 358.058V373.091L193.078 374.788L192.579 375.031H189.842L188.846 374.545V372.848L189.593 370.423L190.09 364.847V348.845L189.593 346.662V345.208H193.078L195.069 346.178L197.558 348.36L199.798 351.027L201.79 353.694L206.022 359.755L209.008 363.877L210.253 365.332L210.751 365.574V361.452L211 354.664H209.755V354.421H211L210.751 346.178L211.746 345.208L212.493 344.965Z" fill="#D0FFB8"/>
<path d="M93.5096 343.996H98.4876L101.475 344.723L103.466 345.935L104.213 346.662L104.462 347.39V349.087L103.715 350.299L102.968 350.542L98.9857 349.087L96.2474 348.36H93.5096L90.5221 349.329L88.531 350.784L87.0375 353.209L85.7928 357.088V362.422L86.7885 366.059L88.282 368.484L90.2736 370.181L93.5096 371.151H95.7497L98.239 370.181L99.4834 368.969L99.9815 367.757L99.7325 365.332L98.239 362.907L97.4923 361.938V361.21H102.222L104.96 361.938L105.458 362.665V367.029L104.96 370.908L104.213 373.09L102.47 374.545L99.7325 375.515L97.9899 376H91.5179L88.282 375.03L85.544 373.576L83.8015 372.121L81.5612 368.969L80.3166 365.817L79.5698 362.422V358.058L80.3166 353.936L82.308 350.057L84.0504 347.875L87.0375 345.693L90.2736 344.48L93.5096 343.996Z" fill="#D0FFB8"/>
<path d="M291.153 344.238L293.642 344.48L295.135 345.208L294.886 346.42L292.646 349.329L290.157 352.724L288.663 355.148L286.672 358.3L286.174 359.755L288.663 364.362L291.65 368.726L295.135 373.333L295.384 374.788L294.389 375.758L293.642 376H289.908L288.414 375.03L286.921 372.606L283.436 366.301L282.191 364.604L281.196 365.089L279.453 367.514L277.213 371.636L275.719 375.03L274.724 375.758L273.977 376H270.741L269.745 375.515L269.497 373.818L271.488 371.151L274.475 367.271L276.964 363.149L278.458 360.725L278.209 359.513L276.217 355.876L273.479 351.269L270.243 347.147L269.745 346.42V345.45L271.737 344.965L276.466 344.48L277.213 345.692L279.205 349.814L281.694 353.694L282.689 354.906L283.187 355.148L283.685 354.178L285.925 351.269L287.419 348.844L288.912 345.692L290.157 344.48L291.153 344.238Z" fill="#D0FFB8"/>
<path d="M321.77 343.996H324.01L325.753 344.723L327.246 346.905L329.735 352.967L333.967 365.089L336.706 371.393V373.818L334.963 375.273L334.216 375.515H331.727L330.731 374.545L328.491 368.241L327.993 367.271L326.749 366.787L323.015 366.544L318.534 367.029L317.29 367.757L316.294 369.696L314.551 374.788L314.054 375.515H312.311L310.818 374.788L309.822 373.333V371.636L311.814 367.514L314.551 360.24L317.041 352.967L319.032 348.117L320.775 344.723L321.77 343.996ZM323.015 350.542L322.268 351.512L318.783 360.968L318.534 362.665L319.032 362.907H326.251L326.998 362.422L326.5 359.513L324.757 353.209L323.762 350.542H323.015Z" fill="#D0FFB8"/>
<path d="M239.377 344.238H251.077L252.57 344.965L253.317 345.935L253.068 347.632L252.321 348.359L244.107 348.117L241.618 348.602L240.373 350.057L239.875 351.997V354.906L240.622 356.603L241.867 357.33H245.352L246.596 357.088H248.837L250.081 358.058L250.33 358.543V360.725L249.085 362.18L247.841 362.422L245.352 361.937H241.618L240.125 362.665L239.377 364.847L239.626 368.968L240.373 371.151L240.871 371.636L241.867 371.878H247.094L252.321 371.151L253.815 371.636L254.064 372.12V373.818L252.321 375.758L250.579 376H236.889L234.15 375.515L232.657 374.788L232.408 373.575L233.154 369.938L233.653 362.422L233.901 356.846V349.329L233.154 347.147V345.692L234.648 344.965L239.377 344.238Z" fill="#D0FFB8"/>
<path d="M52.1885 343.753L53.4331 344.238L54.9266 346.42L55.9223 348.36L59.1583 357.089L62.6432 366.544L64.8834 371.636V373.576L63.8877 374.788L62.1453 375.515H59.905L58.6604 374.303L56.6691 368.484L56.1712 367.271L54.4288 366.787L51.6906 366.544H48.9525L45.4676 367.271V367.757H44.9698L44.4719 369.211L43.2274 373.091L42.2317 375.515L41.236 375.758L39.2446 375.031L38.2489 373.818L38 373.333V371.393L39.9914 367.271L42.2317 361.21L45.9654 350.542L47.9569 346.178L49.4504 344.481L50.446 343.996L52.1885 343.753ZM50.9439 350.3L49.6993 352.724L47.459 358.786L46.7122 361.695V362.665L47.2101 362.907H53.9309L54.9266 362.665L54.6777 360.483L52.4374 352.481L51.4417 350.3H50.9439Z" fill="#D0FFB8"/>
<path d="M166.443 344.238H168.684L170.924 344.965L171.92 345.935L171.173 348.359L170.675 350.057L170.426 354.421V369.696L170.924 371.878L171.67 373.575L171.421 375.03L170.177 376H164.701L163.207 375.272L162.709 374.545L162.958 372.848L163.954 370.423L164.452 367.271V351.027L163.456 348.359L162.709 347.147V345.935L163.954 344.965L166.443 344.238Z" fill="#D0FFB8"/>
<path d="M129.355 354.178L129.853 354.421L129.604 354.906L129.355 354.178Z" fill="#D0FFB8"/>
<path d="M186.605 267.863L187.103 268.106H186.356L186.605 267.863Z" fill="#D0FFB8"/>
</g>
<defs>
<clipPath id="clip0_1_4">
<rect width="299" height="209" fill="white" transform="translate(38 167)"/>
</clipPath>
</defs>
</svg>
